<svg width="39" height="40" viewBox="0 0 39 40" fill="none" xmlns="http://www.w3.org/2000/svg">
<path d="M19.5 1.71875C15.8843 1.71875 12.3498 2.79093 9.34349 4.7997C6.33715 6.80847 3.994 9.66361 2.61034 13.0041C1.22667 16.3445 0.864641 20.0203 1.57003 23.5665C2.27541 27.1127 4.01653 30.3701 6.57321 32.9268C9.12989 35.4835 12.3873 37.2246 15.9335 37.93C19.4797 38.6354 23.1555 38.2733 26.4959 36.8897C29.8364 35.506 32.6915 33.1629 34.7003 30.1565C36.7091 27.1502 37.7813 23.6157 37.7813 20C37.7758 15.1532 35.848 10.5065 32.4207 7.07926C28.9935 3.65205 24.3468 1.72423 19.5 1.71875ZM19.5 35.8438C16.3664 35.8438 13.3032 34.9145 10.6977 33.1736C8.0922 31.4327 6.06147 28.9582 4.86229 26.0631C3.66312 23.1681 3.34936 19.9824 3.96069 16.909C4.57203 13.8357 6.081 11.0126 8.29679 8.79678C10.5126 6.58099 13.3357 5.07202 16.409 4.46068C19.4824 3.84935 22.6681 4.16311 25.5631 5.36228C28.4582 6.56146 30.9327 8.59219 32.6736 11.1977C34.4145 13.8032 35.3438 16.8664 35.3438 20C35.3389 24.2005 33.6681 28.2276 30.6979 31.1979C27.7277 34.1681 23.7005 35.8389 19.5 35.8438Z" fill="#AFAFAF"/>
<path d="M25.5938 18.7812H20.7188V13.9062C20.7188 13.583 20.5903 13.273 20.3618 13.0445C20.1332 12.8159 19.8232 12.6875 19.5 12.6875C19.1768 12.6875 18.8668 12.8159 18.6382 13.0445C18.4097 13.273 18.2812 13.583 18.2812 13.9062V18.7812H13.4062C13.083 18.7812 12.773 18.9097 12.5445 19.1382C12.3159 19.3668 12.1875 19.6768 12.1875 20C12.1875 20.3232 12.3159 20.6332 12.5445 20.8618C12.773 21.0903 13.083 21.2188 13.4062 21.2188H18.2812V26.0938C18.2812 26.417 18.4097 26.727 18.6382 26.9555C18.8668 27.1841 19.1768 27.3125 19.5 27.3125C19.8232 27.3125 20.1332 27.1841 20.3618 26.9555C20.5903 26.727 20.7188 26.417 20.7188 26.0938V21.2188H25.5938C25.917 21.2188 26.227 21.0903 26.4555 20.8618C26.6841 20.6332 26.8125 20.3232 26.8125 20C26.8125 19.6768 26.6841 19.3668 26.4555 19.1382C26.227 18.9097 25.917 18.7812 25.5938 18.7812Z" fill="#AFAFAF"/>
</svg>
