<svg width="14" height="13" viewBox="0 0 14 13" fill="none" xmlns="http://www.w3.org/2000/svg">
<path fill-rule="evenodd" clip-rule="evenodd" d="M7.00016 11.7938C9.92382 11.7938 12.2939 9.42367 12.2939 6.50001C12.2939 3.57635 9.92382 1.20626 7.00016 1.20626C4.07651 1.20626 1.70641 3.57635 1.70641 6.50001C1.70641 9.42367 4.07651 11.7938 7.00016 11.7938ZM7.00016 12.9167C10.544 12.9167 13.4168 10.0438 13.4168 6.50001C13.4168 2.95618 10.544 0.0833435 7.00016 0.0833435C3.45634 0.0833435 0.583496 2.95618 0.583496 6.50001C0.583496 10.0438 3.45634 12.9167 7.00016 12.9167Z" fill="#393938"/>
<path fill-rule="evenodd" clip-rule="evenodd" d="M7.64183 2.73032C7.95191 2.73032 8.20328 2.98169 8.20328 3.29177V6.7378L5.41642 8.87095C5.17019 9.05942 4.81779 9.0126 4.62932 8.76637C4.44084 8.52014 4.48766 8.16774 4.7339 7.97927L7.08037 6.1832V3.29177C7.08037 2.98169 7.33174 2.73032 7.64183 2.73032Z" fill="#393938"/>
</svg>
