<svg width="16" height="16" viewBox="0 0 16 16" xmlns="http://www.w3.org/2000/svg">
<path fill-opacity="1" clip-rule="evenodd" d="M15.454 3.13846C15.633 2.95947 15.633 2.66927 15.454 2.49028L13.5095 0.545734C13.3305 0.366744 13.0403 0.366744 12.8613 0.545734L8.00005 5.40699L3.13916 0.546092C2.96017 0.367102 2.66997 0.367102 2.49098 0.546092L0.546435 2.49064C0.367444 2.66963 0.367445 2.95983 0.546435 3.13882L5.40733 7.99971L0.545864 12.8612C0.366873 13.0402 0.366874 13.3304 0.545864 13.5094L2.49041 15.4539C2.6694 15.6329 2.9596 15.6329 3.13859 15.4539L8.00005 10.5924L12.8619 15.4543C13.0409 15.6332 13.3311 15.6332 13.5101 15.4543L15.4546 13.5097C15.6336 13.3307 15.6336 13.0405 15.4546 12.8615L10.5928 7.99971L15.454 3.13846Z"/>
</svg>
