<?xml version="1.0" standalone="no"?>
<!DOCTYPE svg PUBLIC "-//W3C//DTD SVG 20010904//EN"
 "http://www.w3.org/TR/2001/REC-SVG-20010904/DTD/svg10.dtd">
<svg version="1.0" xmlns="http://www.w3.org/2000/svg"
 width="111.000000pt" height="98.000000pt" viewBox="0 0 111.000000 98.000000"
 preserveAspectRatio="xMidYMid meet">

<g transform="translate(0.000000,98.000000) scale(0.100000,-0.100000)"
fill="#000000" stroke="none">
<path d="M305 703 c-137 -140 -251 -259 -253 -264 -2 -5 24 -9 57 -9 l61 0 0
-205 0 -205 144 0 145 0 3 151 3 151 28 24 c20 17 40 24 68 24 92 0 109 -34
109 -215 l0 -135 140 0 140 0 0 205 0 205 60 0 c33 0 60 3 60 8 0 4 -116 122
-258 263 l-257 256 -250 -254z m469 -15 l206 -213 -35 -3 -35 -3 0 -205 0
-204 -99 0 -99 0 -3 128 c-3 102 -8 133 -22 155 -41 62 -123 84 -193 51 -56
-27 -68 -61 -72 -206 l-4 -128 -109 0 -109 0 0 204 0 205 -32 3 c-33 3 -30 6
176 216 115 116 212 212 217 212 4 0 100 -96 213 -212z"/>
</g>
</svg>
