<svg width="39" height="40" viewBox="0 0 39 40" fill="none" xmlns="http://www.w3.org/2000/svg">
<path d="M19.5 38.2812C29.5965 38.2812 37.7812 30.0965 37.7812 20C37.7812 9.90354 29.5965 1.71875 19.5 1.71875C9.40354 1.71875 1.21875 9.90354 1.21875 20C1.21875 30.0965 9.40354 38.2812 19.5 38.2812Z" fill="#78C800"/>
<path d="M2.86389 21.2187C2.86698 17.9213 3.76188 14.6861 5.45381 11.8557C7.14574 9.02544 9.57169 6.70545 12.4747 5.14153C15.3777 3.57761 18.6496 2.82799 21.944 2.97208C25.2383 3.11616 28.4323 4.14859 31.1876 5.96C29.2897 4.29092 27.0662 3.03355 24.6577 2.26727C22.2491 1.501 19.7079 1.24249 17.1944 1.50805C14.6809 1.77362 12.2498 2.5575 10.0546 3.81018C7.85937 5.06287 5.94777 6.75714 4.44049 8.786C2.93322 10.8149 1.86302 13.1342 1.29749 15.5976C0.731958 18.061 0.68338 20.6149 1.15482 23.0981C1.62627 25.5812 2.60749 27.9396 4.03652 30.0243C5.46555 32.109 7.31134 33.8747 9.45733 35.21C7.40251 33.5015 5.74723 31.3633 4.60805 28.946C3.46888 26.5287 2.87352 23.891 2.86389 21.2187Z" fill="#71B200"/>
<path d="M19.4999 7.92221C17.1413 7.92544 14.8802 8.86382 13.2124 10.5316C11.5446 12.1994 10.6063 14.4605 10.603 16.8191V35.2222C10.6037 35.4473 10.6667 35.6677 10.785 35.8592C10.9033 36.0507 11.0724 36.2056 11.2733 36.3069C13.8213 37.605 16.6403 38.2816 19.4999 38.2816C22.3595 38.2816 25.1785 37.605 27.7265 36.3069C27.9275 36.2056 28.0965 36.0507 28.2148 35.8592C28.3331 35.6677 28.3961 35.4473 28.3968 35.2222V16.8191C28.3936 14.4605 27.4552 12.1994 25.7874 10.5316C24.1196 8.86382 21.8585 7.92544 19.4999 7.92221Z" fill="#333333"/>
<path d="M19.4994 38.2812C24.0562 38.2824 28.4464 36.5681 31.7966 33.4794C31.8141 33.3867 31.8141 33.2917 31.7966 33.199C31.2578 31.5886 30.2268 30.1882 28.8491 29.1954C27.4714 28.2025 25.8167 27.6676 24.1185 27.6659H14.9779C13.2818 27.6701 11.6298 28.2063 10.2545 29.1989C8.87928 30.1915 7.85009 31.5906 7.31194 33.199C7.29446 33.2917 7.29446 33.3867 7.31194 33.4794C10.6343 36.5425 14.9806 38.255 19.4994 38.2812Z" fill="#FFC200"/>
<path d="M7.9335 33.8816C8.4755 32.2731 9.50735 30.8747 10.8843 29.8824C12.2613 28.8901 13.9144 28.3537 15.6116 28.3484H24.7644C26.7341 28.3564 28.6328 29.0847 30.1026 30.3959C29.3458 29.5418 28.4173 28.8571 27.3777 28.3867C26.3381 27.9162 25.2108 27.6706 24.0698 27.6659H14.9291C13.2414 27.6803 11.6003 28.2211 10.2347 29.213C8.8692 30.205 7.8474 31.5985 7.31194 33.1991C7.29446 33.2917 7.29446 33.3867 7.31194 33.4794C7.53132 33.6866 7.77507 33.8694 8.00663 34.0644C7.97615 34.0061 7.95165 33.9448 7.9335 33.8816Z" fill="#F49000"/>
<path d="M22.7907 19.7928H16.2095C15.8862 19.7928 15.5762 19.9212 15.3477 20.1498C15.1191 20.3783 14.9907 20.6883 14.9907 21.0116V28.8969C14.9918 29.0976 15.0424 29.295 15.138 29.4715C15.2337 29.6479 15.3715 29.798 15.5392 29.9084L18.8298 32.1022C19.0288 32.2332 19.2618 32.3031 19.5001 32.3031C19.7384 32.3031 19.9714 32.2332 20.1704 32.1022L23.461 29.9084C23.6287 29.798 23.7665 29.6479 23.8622 29.4715C23.9578 29.295 24.0084 29.0976 24.0095 28.8969V21.0116C24.0095 20.6883 23.8811 20.3783 23.6525 20.1498C23.424 19.9212 23.114 19.7928 22.7907 19.7928Z" fill="#ECC5B4"/>
<path d="M26.2031 16.0634H12.7969C11.8272 16.0634 10.8972 16.4487 10.2115 17.1343C9.52584 17.82 9.14062 18.75 9.14062 19.7197C9.14062 20.6894 9.52584 21.6194 10.2115 22.3051C10.8972 22.9907 11.8272 23.3759 12.7969 23.3759H26.2031C27.1728 23.3759 28.1028 22.9907 28.7885 22.3051C29.4742 21.6194 29.8594 20.6894 29.8594 19.7197C29.8594 18.75 29.4742 17.82 28.7885 17.1343C28.1028 16.4487 27.1728 16.0634 26.2031 16.0634Z" fill="#ECC5B4"/>
<path d="M22.4982 11.4688H16.502C15.3739 11.4688 14.292 11.9169 13.4943 12.7146C12.6967 13.5122 12.2485 14.5941 12.2485 15.7222V19.8172C12.2485 21.7404 13.0125 23.5849 14.3725 24.9448C15.7324 26.3047 17.5769 27.0687 19.5001 27.0687C21.4233 27.0687 23.2678 26.3047 24.6277 24.9448C25.9877 23.5849 26.7517 21.7404 26.7517 19.8172V15.6856C26.742 14.5639 26.2896 13.4914 25.493 12.7016C24.6964 11.9118 23.62 11.4687 22.4982 11.4688Z" fill="#F4DAB7"/>
<path d="M28.2752 15.9294H28.3484C28.2093 14.5111 27.7306 13.1472 26.9528 11.953C26.175 10.7589 25.1211 9.76964 23.8801 9.06904C22.6391 8.36843 21.2476 7.97707 19.8233 7.92807C18.399 7.87906 16.9839 8.17386 15.6977 8.7875C15.6056 9.09864 15.6316 9.43284 15.7709 9.72594C16.5974 11.4471 17.8264 12.9437 19.354 14.0891C21.2121 15.4783 23.469 16.2306 25.789 16.2341C26.6266 16.2278 27.4608 16.1255 28.2752 15.9294Z" fill="#5E5E5E"/>
<path d="M23.1562 8.73875C21.8038 8.12566 20.3193 7.86129 18.8384 7.96981C17.3575 8.07832 15.9274 8.55627 14.6788 9.35996C13.4303 10.1636 12.4031 11.2674 11.6911 12.5705C10.979 13.8735 10.605 15.3342 10.603 16.8191V17.2944C11.083 17.3677 11.5678 17.4044 12.0533 17.4041C13.6728 17.4023 15.2729 17.0519 16.7449 16.3769C18.217 15.7018 19.5265 14.7179 20.5846 13.4919C21.7659 12.124 22.6425 10.5203 23.1562 8.7875V8.73875Z" fill="#5E5E5E"/>
</svg>
