<svg width="22" height="22" viewBox="0 0 22 22" fill="none" xmlns="http://www.w3.org/2000/svg">
<path fill-rule="evenodd" clip-rule="evenodd" d="M17.17 9.83539C17.17 13.888 13.8856 17.1726 9.83499 17.1726C5.78443 17.1726 2.5 13.888 2.5 9.83539C2.5 5.78274 5.78443 2.49821 9.83499 2.49821C13.8856 2.49821 17.17 5.78274 17.17 9.83539ZM14.8056 17.7402C13.3664 18.6476 11.662 19.1726 9.83499 19.1726C4.67942 19.1726 0.5 14.9922 0.5 9.83539C0.5 4.67861 4.67942 0.498215 9.83499 0.498215C14.9906 0.498215 19.17 4.67861 19.17 9.83539C19.17 11.6621 18.6455 13.3663 17.739 14.8055L21.3535 18.4209C21.5488 18.6162 21.5488 18.9328 21.3535 19.1281L19.1268 21.3553C18.9316 21.5506 18.6151 21.5506 18.4198 21.3553L14.8056 17.7402Z" fill="#393938"/>
</svg>
